<svg width="31" height="32" viewBox="0 0 31 32" fill="none" xmlns="http://www.w3.org/2000/svg">
<g clip-path="url(#clip0_10153_139)">
<g clip-path="url(#clip1_10153_139)">
<path d="M0 16C0 7.59902 6.81026 0.788757 15.2113 0.788757C23.6123 0.788757 30.4225 7.59902 30.4225 16C30.4225 24.401 23.6123 31.2113 15.2113 31.2113C6.81026 31.2113 0 24.401 0 16ZM15.2113 30.0513C22.9717 30.0513 29.2625 23.7602 29.2625 16C29.2625 8.23961 22.9715 1.94875 15.2113 1.94875C7.45086 1.94875 1.15999 8.23984 1.15999 16C1.15999 23.7604 7.45108 30.0513 15.2113 30.0513Z" fill="#38B601"/>
<g clip-path="url(#clip2_10153_139)">
<g clip-path="url(#clip3_10153_139)">
<path fill-rule="evenodd" clip-rule="evenodd" d="M21.3173 23.9817H11.9188C10.8812 23.9817 10.0431 23.1436 10.0431 22.106H10.981C10.981 22.6248 11.4 23.0439 11.9188 23.0439H21.3173C21.8361 23.0439 22.2551 22.6248 22.2551 22.106V12.7076C22.2551 12.1887 21.8361 11.7697 21.3173 11.7697V10.8319C22.3549 10.8319 23.193 11.6699 23.193 12.7076V22.106C23.193 23.1436 22.3549 23.9817 21.3173 23.9817ZM18.5037 21.1682H9.10525C8.06763 21.1682 7.22955 20.3301 7.22955 19.2925V9.89401C7.22955 8.85639 8.06763 8.01831 9.10525 8.01831H18.5037C19.5413 8.01831 20.3794 8.85639 20.3794 9.89401V19.2925C20.3794 20.3301 19.5413 21.1682 18.5037 21.1682Z" fill="#38B601"/>
</g>
</g>
</g>
</g>
<defs>
<clipPath id="clip0_10153_139">
<rect width="30.4225" height="30.4225" fill="white" transform="translate(0 0.788757)"/>
</clipPath>
<clipPath id="clip1_10153_139">
<rect width="30.4225" height="30.4225" fill="white" transform="translate(0 0.788757)"/>
</clipPath>
<clipPath id="clip2_10153_139">
<rect width="15.9634" height="15.9634" fill="white" transform="translate(7.22955 8.01831)"/>
</clipPath>
<clipPath id="clip3_10153_139">
<rect width="15.9634" height="15.9634" fill="white" transform="translate(7.22955 8.01831)"/>
</clipPath>
</defs>
</svg>
