<svg width="231" height="45" viewBox="0 0 231 45" fill="none" xmlns="http://www.w3.org/2000/svg">
<path d="M67.5475 32.9321C60.638 32.9321 57.1695 27.9506 57.1695 22.4731C57.1695 16.9951 60.7605 12.0711 67.6155 12.0711C70.244 12.0711 72.111 12.6461 73.692 13.6796L71.7265 16.9031C70.4865 16.0946 69.0275 15.6851 67.5475 15.7301C63.8515 15.7301 61.8655 18.6781 61.8655 22.3506C61.8655 26.1386 63.763 29.2431 67.6155 29.2431C69.2575 29.2741 70.8595 28.7316 72.145 27.7096L73.957 30.8071C72.9305 31.7386 70.5025 32.9321 67.5475 32.9321ZM82.193 20.5451C79.9755 20.5451 79.2585 22.4051 79.2585 25.1186C79.2585 27.8316 80.129 29.7871 82.3425 29.7871C84.556 29.7871 85.345 27.9676 85.345 25.2441C85.345 22.5206 84.444 20.5451 82.193 20.5451ZM82.2745 32.9321C77.1195 32.9321 74.8445 29.0561 74.8445 25.2476C74.8445 21.4391 77.089 17.4606 82.244 17.4606C87.3985 17.4606 89.7585 21.3066 89.7585 25.1321C89.7585 28.8721 87.46 32.9321 82.2745 32.9321ZM96.287 17.8246V27.2876C96.287 28.7396 96.794 29.4641 98.2085 29.4641C99.6975 29.4641 100.84 28.0496 101.139 27.6891V17.8281H105.305V28.2431C105.293 29.6971 105.426 31.1481 105.702 32.5751H101.598C101.437 31.9331 101.336 31.2776 101.296 30.6166C100.165 32.0971 98.398 32.9576 96.5355 32.9356C93.2845 32.9356 92.115 30.8511 92.115 28.1446V17.8246H96.287ZM115.502 32.9321C110.742 32.9321 107.8 29.8276 107.8 25.2136C107.8 20.2561 111.112 17.4606 115.621 17.4606C118.001 17.4606 119.436 18.1716 120.133 18.6236L118.811 21.4666C117.899 20.8826 116.833 20.5851 115.75 20.6131C113.435 20.6131 112.207 22.4051 112.207 25.0846C112.207 27.7636 113.377 29.7191 115.842 29.7191C116.952 29.7341 118.043 29.4296 118.984 28.8416L120.246 31.6166C119.562 32.0616 118.202 32.9321 115.502 32.9321ZM131.392 32.5721V23.0916C131.392 21.6396 130.885 20.9156 129.495 20.9156C127.981 20.9156 126.839 22.3061 126.54 22.6971V32.5581H122.374V10.7961H126.54V19.5861C127.685 18.2426 129.362 17.4656 131.127 17.4606C134.378 17.4606 135.547 19.5316 135.547 22.2586V32.5686H131.392V32.5721ZM143.113 29.3656C143.749 29.5886 144.421 29.6956 145.095 29.6816C147.248 29.6816 148.557 28.1106 148.557 25.0846C148.557 22.3641 147.635 20.7386 145.534 20.7386C144.612 20.7596 143.738 21.1566 143.116 21.8371V29.3656H143.113ZM143.113 10.8031V18.9636C144.069 18.0101 145.36 17.4646 146.71 17.4436C150.376 17.4436 152.968 19.9531 152.968 25.0706C152.968 30.1881 149.567 32.9151 145.092 32.9151C141.729 32.9151 139.672 32.0786 138.947 31.7386V10.8031H143.113ZM162.842 26.0706H162.335C160.047 26.0706 158.465 26.7506 158.465 28.4201C158.465 29.4706 159.305 29.9231 160.22 29.9231C161.232 29.9101 162.19 29.4566 162.842 28.6821V26.0671V26.0706ZM163.311 32.5721C163.177 32.0601 163.094 31.5361 163.063 31.0076C162.046 32.2301 160.535 32.9376 158.945 32.9356C156.429 32.9356 154.477 31.4261 154.477 28.7701C154.477 24.9381 158.414 23.5236 162.338 23.5236H162.845V22.7141C162.845 21.4901 162.346 20.7421 160.496 20.7421C159.134 20.7751 157.82 21.2531 156.755 22.1021L154.956 19.5791C155.847 18.7766 157.813 17.4471 160.982 17.4471C165.062 17.4471 166.99 19.0046 166.99 22.9421V28.1211C166.97 29.6051 167.112 31.0876 167.412 32.5411H163.331L163.311 32.5721ZM174.471 32.9321C171.805 32.9321 170.101 32.1466 169.197 31.5416L170.588 28.6411C171.658 29.3761 172.915 29.7946 174.212 29.8481C175.732 29.8481 176.593 29.4196 176.593 28.5801C176.593 27.6141 174.92 27.3556 172.828 26.3526C170.788 25.3766 169.595 24.2341 169.595 22.0141C169.595 19.2256 171.808 17.4641 175.164 17.4641C176.828 17.4166 178.474 17.8221 179.925 18.6371L178.48 21.4731C177.533 20.8891 176.447 20.5706 175.334 20.5516C173.93 20.5516 173.338 21.0446 173.338 21.7996C173.338 22.7686 174.699 23.0036 176.399 23.6836C178.728 24.6221 180.381 25.7236 180.381 28.1891C180.367 31.3001 178.136 32.9321 174.471 32.9321ZM191.602 23.4011C191.571 21.7691 190.922 20.4461 189.136 20.4461C187.487 20.4461 186.552 21.4936 186.28 23.4011H191.602ZM190.014 29.8616C191.357 29.8681 192.677 29.5161 193.839 28.8416L195.169 31.5111C194.186 32.0616 192.683 32.9321 189.629 32.9321C184.672 32.9321 181.853 29.8416 181.853 25.1116C181.853 20.3816 185.093 17.4606 189.201 17.4606C193.849 17.4606 196.093 20.6876 195.604 26.1996H186.304C186.501 28.3996 187.633 29.8481 190.014 29.8481V29.8616Z" fill="white"/>
<path d="M45 22.5C45 34.9264 34.9264 45 22.5 45C10.0736 45 0 34.9264 0 22.5C0 10.0736 10.0736 0 22.5 0C34.9264 0 45 10.0736 45 22.5Z" fill="white"/>
<path d="M22.4865 0C10.1485 0.0075 0 10.162 0 22.5C0 34.843 10.157 45 22.5 45C34.842 45 44.998 34.8455 45 22.5035C45 10.1585 34.8415 0 22.4965 0C22.493 0 22.4895 0 22.4865 0ZM37.696 26.4445C37.7615 27.832 36.7545 29.058 35.3805 29.2635C32.7245 29.7255 27.1585 30.008 22.4895 30.008C17.821 30.008 12.2515 29.7255 9.5955 29.2635C8.222 29.058 7.2145 27.832 7.28 26.4445V17.651C7.299 16.29 8.2645 15.1135 9.5955 14.829C10.9365 14.657 12.287 14.5775 13.6385 14.591C14.178 14.5985 14.6175 15.0445 14.6175 15.5835C14.6175 15.6085 14.6165 15.6335 14.6145 15.6585V21.786C17.3585 21.786 19.739 21.6225 22.4895 21.6225C25.2405 21.6225 27.621 21.779 30.365 21.786V15.6415C30.364 15.622 30.363 15.603 30.363 15.5835C30.363 15.046 30.8 14.601 31.3375 14.591C32.6895 14.5855 34.0405 14.673 35.3805 14.8525C36.7115 15.137 37.677 16.314 37.696 17.675V26.4615V26.4445Z" fill="#CC2A2E"/>
<path d="M230.225 22.0161C230.225 23.5459 230.042 24.949 229.676 26.2255C229.32 27.4925 228.766 28.5906 228.015 29.5198C227.264 30.449 226.311 31.1763 225.157 31.7019L230.113 37.2347H224.524L220.751 32.617C220.685 32.617 220.629 32.617 220.582 32.617C220.535 32.617 220.483 32.617 220.427 32.617C218.747 32.617 217.292 32.3683 216.062 31.8709C214.833 31.3641 213.815 30.6414 213.007 29.7028C212.21 28.7643 211.614 27.6427 211.22 26.3381C210.825 25.0335 210.628 23.5835 210.628 21.9879C210.628 19.8574 210.976 18.0038 211.67 16.427C212.374 14.8408 213.453 13.6113 214.908 12.7385C216.363 11.8656 218.212 11.4292 220.455 11.4292C222.689 11.4292 224.524 11.8656 225.96 12.7385C227.405 13.6113 228.475 14.8408 229.169 16.427C229.873 18.0131 230.225 19.8762 230.225 22.0161ZM215.204 22.0161C215.204 23.4521 215.382 24.6909 215.739 25.7327C216.105 26.7651 216.673 27.5629 217.442 28.126C218.212 28.6798 219.207 28.9567 220.427 28.9567C221.666 28.9567 222.67 28.6798 223.439 28.126C224.209 27.5629 224.768 26.7651 225.115 25.7327C225.471 24.6909 225.65 23.4521 225.65 22.0161C225.65 19.8574 225.246 18.1586 224.439 16.9197C223.632 15.6808 222.304 15.0614 220.455 15.0614C219.225 15.0614 218.221 15.343 217.442 15.9061C216.673 16.4598 216.105 17.2576 215.739 18.2994C215.382 19.3318 215.204 20.5707 215.204 22.0161Z" fill="white"/>
<path d="M206.686 16.596V32.3355H202.392V16.596H206.686ZM204.546 10.4297C205.185 10.4297 205.734 10.5799 206.194 10.8802C206.653 11.1711 206.883 11.7202 206.883 12.5274C206.883 13.3251 206.653 13.8789 206.194 14.1886C205.734 14.4889 205.185 14.6391 204.546 14.6391C203.899 14.6391 203.345 14.4889 202.885 14.1886C202.435 13.8789 202.209 13.3251 202.209 12.5274C202.209 11.7202 202.435 11.1711 202.885 10.8802C203.345 10.5799 203.899 10.4297 204.546 10.4297Z" fill="white"/>
</svg>
