<svg width="357.142" height="45" viewBox="0 0 357.142 45" fill="none" xmlns="http://www.w3.org/2000/svg"><g clip-path="url(#clip0_468_12)"><path d="M0 22.5C0 10.074 10.074 0 22.5 0s22.5 10.074 22.5 22.5 -10.074 22.5 -22.5 22.5S0 34.926 0 22.5m22.5 20.785c11.479 0 20.785 -9.306 20.785 -20.785S33.979 1.715 22.5 1.715 1.715 11.021 1.715 22.5 11.021 43.285 22.5 43.285" fill="#38B601"/><g clip-path="url(#clip1_468_12)"><g clip-path="url(#clip2_468_12)"><path fill-rule="evenodd" clip-rule="evenodd" d="M31.532 34.306H17.63a2.772 2.772 0 0 1 -2.775 -2.775h1.387a1.386 1.386 0 0 0 1.387 1.388h13.902a1.386 1.386 0 0 0 1.387 -1.388V17.631a1.386 1.386 0 0 0 -1.388 -1.387v-1.387a2.772 2.772 0 0 1 2.775 2.775v13.902a2.772 2.772 0 0 1 -2.775 2.775m-4.162 -4.162H13.468a2.772 2.772 0 0 1 -2.775 -2.775V13.468a2.772 2.772 0 0 1 2.775 -2.775h13.902a2.772 2.772 0 0 1 2.775 2.775v13.902a2.772 2.772 0 0 1 -2.775 2.775" fill="#38B601"/></g></g></g><path d="M73.628 21.456q0 2.312 -0.585 4.207 -0.585 1.867 -1.755 3.231 -1.142 1.365 -2.869 2.089 -1.699 0.724 -3.955 0.724 -2.34 0 -4.067 -0.724 -1.727 -0.752 -2.869 -2.089 -1.142 -1.365 -1.699 -3.259t-0.557 -4.207q0 -3.064 1.003 -5.349t3.037 -3.566q2.061 -1.282 5.181 -1.282 2.981 0 5.014 1.282 2.034 1.254 3.064 3.566 1.058 2.284 1.058 5.377m-15.711 0q0 2.507 0.697 4.318t2.145 2.785q1.476 0.975 3.705 0.975 2.256 0 3.677 -0.975 1.449 -0.975 2.145 -2.785t0.697 -4.318q0 -3.761 -1.56 -5.878 -1.56 -2.145 -4.931 -2.145 -2.256 0 -3.733 0.975 -1.449 0.947 -2.145 2.758 -0.697 1.783 -0.697 4.29m36.166 -5.237q2.535 0 3.789 1.309 1.254 1.282 1.254 4.179v9.722h-2.424V21.818q0 -1.755 -0.752 -2.646 -0.724 -0.891 -2.284 -0.891 -2.173 0 -3.12 1.254 -0.919 1.254 -0.919 3.649v8.245h-2.424V21.818q0 -1.17 -0.334 -1.95 -0.334 -0.808 -1.003 -1.198t-1.727 -0.39q-1.504 0 -2.368 0.641 -0.864 0.613 -1.254 1.811 -0.362 1.198 -0.362 2.953v7.744h-2.452V16.497h1.978l0.362 2.034h0.139a4.5 4.5 0 0 1 1.142 -1.282 4.77 4.77 0 0 1 1.532 -0.78 6.03 6.03 0 0 1 1.727 -0.251q1.727 0 2.869 0.613 1.17 0.613 1.699 1.894h0.139q0.752 -1.282 2.034 -1.894a6.426 6.426 0 0 1 2.758 -0.613m16.842 0q2.674 0 4.039 1.309 1.365 1.282 1.365 4.179v9.723h-2.424V21.874q0 -1.811 -0.808 -2.702t-2.535 -0.891q-2.479 0 -3.426 1.393t-0.947 4.011v7.744h-2.452V16.497h1.978l0.362 2.034h0.139a4.5 4.5 0 0 1 1.226 -1.282 5.4 5.4 0 0 1 1.643 -0.78 6.75 6.75 0 0 1 1.839 -0.251m12.484 0.279v14.932h-2.452V16.497zm-1.198 -5.599q0.557 0 0.975 0.39 0.445 0.362 0.445 1.17 0 0.78 -0.445 1.17 -0.418 0.39 -0.975 0.39 -0.613 0 -1.03 -0.39t-0.418 -1.17q0 -0.808 0.418 -1.17 0.418 -0.39 1.03 -0.39m15.651 16.408q0 1.449 -0.724 2.424t-2.061 1.476 -3.176 0.501q-1.56 0 -2.702 -0.251 -1.114 -0.251 -1.978 -0.697v-2.228q0.891 0.445 2.145 0.836 1.282 0.362 2.591 0.362 1.867 0 2.702 -0.585 0.836 -0.613 0.836 -1.615 0 -0.557 -0.306 -1.003t-1.114 -0.891q-0.78 -0.445 -2.256 -1.003 -1.449 -0.557 -2.479 -1.114t-1.588 -1.337 -0.557 -2.006q0 -1.894 1.532 -2.925 1.56 -1.03 4.067 -1.03 1.365 0 2.535 0.279 1.198 0.251 2.228 0.724l-0.836 1.95a9 9 0 0 0 -1.309 -0.473 8.55 8.55 0 0 0 -1.365 -0.334q-0.697 -0.139 -1.421 -0.139 -1.504 0 -2.312 0.501 -0.78 0.473 -0.78 1.309 0 0.613 0.362 1.058 0.362 0.418 1.198 0.836 0.864 0.39 2.284 0.947 1.421 0.529 2.424 1.086t1.532 1.365q0.529 0.78 0.529 1.978m8.594 2.396q0.557 0 1.142 -0.084 0.585 -0.112 0.947 -0.223v1.867q-0.39 0.195 -1.114 0.306 -0.724 0.139 -1.393 0.139 -1.17 0 -2.173 -0.39 -0.975 -0.418 -1.588 -1.421t-0.613 -2.813v-8.693h-2.117v-1.17l2.145 -0.975 0.975 -3.176h1.449v3.426h4.318v1.894h-4.318v8.635q0 1.365 0.641 2.034 0.669 0.641 1.699 0.641m12.044 -13.483q0.418 0 0.891 0.056 0.501 0.028 0.864 0.112l-0.306 2.256a8.1 8.1 0 0 0 -0.808 -0.139 6.3 6.3 0 0 0 -0.808 -0.056 3.87 3.87 0 0 0 -1.643 0.362 4.32 4.32 0 0 0 -1.393 1.03q-0.613 0.641 -0.975 1.56 -0.334 0.919 -0.334 2.061v7.969h-2.452V16.497h2.006l0.279 2.73h0.112a7.02 7.02 0 0 1 1.142 -1.504 4.95 4.95 0 0 1 1.532 -1.086q0.864 -0.418 1.894 -0.418m9.654 0.028q2.73 0 4.039 1.198t1.309 3.816v10.168h-1.783l-0.473 -2.117h-0.112a8.55 8.55 0 0 1 -1.337 1.365 4.41 4.41 0 0 1 -1.56 0.78q-0.864 0.251 -2.117 0.251 -1.337 0 -2.424 -0.473a3.726 3.726 0 0 1 -1.671 -1.449q-0.613 -1.003 -0.613 -2.507 0 -2.228 1.755 -3.426 1.755 -1.226 5.404 -1.337l2.535 -0.084v-0.891q0 -1.867 -0.808 -2.591t-2.284 -0.724a6.84 6.84 0 0 0 -2.228 0.362q-1.058 0.334 -1.978 0.78l-0.752 -1.839q0.975 -0.529 2.312 -0.891a9.9 9.9 0 0 1 2.785 -0.39m0.724 7.967q-2.785 0.112 -3.872 0.891 -1.058 0.78 -1.058 2.2 0 1.254 0.752 1.839 0.78 0.585 1.978 0.585 1.894 0 3.148 -1.03 1.254 -1.058 1.254 -3.231v-1.337zm14.222 5.488q0.557 0 1.142 -0.084 0.585 -0.112 0.947 -0.223v1.867q-0.39 0.195 -1.114 0.306 -0.724 0.139 -1.393 0.139 -1.17 0 -2.173 -0.39 -0.975 -0.418 -1.588 -1.421t-0.613 -2.813v-8.692h-2.117v-1.17l2.145 -0.975 0.975 -3.176h1.449v3.426h4.318v1.894h-4.318v8.635q0 1.365 0.641 2.034 0.669 0.641 1.699 0.641m10.846 -13.483q1.922 0 3.287 0.836 1.393 0.836 2.117 2.368 0.752 1.504 0.752 3.538v1.476h-10.223q0.056 2.535 1.282 3.872 1.254 1.309 3.482 1.309 1.421 0 2.507 -0.251 1.114 -0.279 2.284 -0.78v2.145a10.98 10.98 0 0 1 -2.256 0.724q-1.114 0.251 -2.646 0.251 -2.117 0 -3.761 -0.864 -1.615 -0.864 -2.535 -2.563 -0.891 -1.727 -0.891 -4.207 0 -2.452 0.808 -4.207 0.836 -1.755 2.312 -2.702 1.504 -0.947 3.482 -0.947m-0.028 2.006q-1.755 0 -2.785 1.142 -1.003 1.114 -1.198 3.12h7.605q0 -1.282 -0.39 -2.228t-1.198 -1.476q-0.78 -0.557 -2.034 -0.557m30.035 13.204 -2.396 -6.156h-7.884l-2.367 6.156h-2.535l7.772 -19.974h2.256l7.744 19.974zm-5.377 -14.402a27 27 0 0 1 -0.279 -0.808q-0.195 -0.585 -0.39 -1.198a16.2 16.2 0 0 0 -0.279 -0.975q-0.139 0.557 -0.306 1.142 -0.139 0.557 -0.306 1.03 -0.139 0.473 -0.251 0.808l-2.256 6.017h6.295zm16.287 14.402h-7.187v-1.449l2.34 -0.529V13.544l-2.34 -0.557v-1.449h7.187v1.449l-2.34 0.557v15.907l2.34 0.529zm16.342 -19.89q3.9 0 5.683 1.532t1.783 4.318a6.84 6.84 0 0 1 -0.418 2.368q-0.39 1.114 -1.309 2.006t-2.452 1.421q-1.532 0.501 -3.761 0.501h-2.284v7.744h-2.507v-19.89zm-0.223 2.145h-2.535v7.856h2.006q1.894 0 3.148 -0.39 1.254 -0.418 1.867 -1.309t0.613 -2.34q0 -1.922 -1.226 -2.869t-3.872 -0.947m13.941 17.744h-2.452V10.257h2.452zm10.386 -15.182q2.73 0 4.039 1.198t1.309 3.816v10.168h-1.783l-0.473 -2.117h-0.112a8.55 8.55 0 0 1 -1.337 1.365 4.41 4.41 0 0 1 -1.56 0.78q-0.864 0.251 -2.117 0.251 -1.337 0 -2.424 -0.473a3.726 3.726 0 0 1 -1.671 -1.449q-0.613 -1.003 -0.613 -2.507 0 -2.228 1.755 -3.426 1.755 -1.226 5.404 -1.337l2.535 -0.084v-0.891q0 -1.867 -0.808 -2.591t-2.284 -0.724a6.84 6.84 0 0 0 -2.228 0.362q-1.058 0.334 -1.978 0.78l-0.752 -1.839q0.975 -0.529 2.312 -0.891a9.9 9.9 0 0 1 2.785 -0.39m0.724 7.967q-2.785 0.112 -3.872 0.891 -1.058 0.78 -1.058 2.2 0 1.254 0.752 1.839 0.78 0.585 1.978 0.585 1.894 0 3.148 -1.03 1.254 -1.058 1.254 -3.231v-1.337zm14.222 5.488q0.557 0 1.142 -0.084 0.585 -0.112 0.947 -0.223v1.867q-0.39 0.195 -1.114 0.306 -0.724 0.139 -1.393 0.139 -1.17 0 -2.173 -0.39 -0.975 -0.418 -1.588 -1.421t-0.613 -2.813v-8.692h-2.117v-1.17l2.145 -0.975 0.975 -3.176h1.449v3.426h4.318v1.894h-4.318v8.635q0 1.365 0.641 2.034 0.669 0.641 1.699 0.641m11.96 -11.31h-3.761v13.037h-2.452V18.391h-2.619v-1.142l2.619 -0.836v-0.863q0 -1.922 0.557 -3.12 0.585 -1.198 1.671 -1.755t2.619 -0.557q0.891 0 1.615 0.167 0.752 0.139 1.282 0.334l-0.641 1.922q-0.445 -0.139 -1.03 -0.279a5.13 5.13 0 0 0 -1.198 -0.139q-1.226 0 -1.839 0.836 -0.585 0.808 -0.585 2.563v0.975h3.761zm15.676 5.544q0 1.867 -0.5 3.315 -0.473 1.421 -1.393 2.424 -0.891 1.003 -2.2 1.532 -1.282 0.501 -2.869 0.501 -1.476 0 -2.73 -0.501a6.12 6.12 0 0 1 -2.173 -1.532q-0.919 -1.003 -1.449 -2.424 -0.501 -1.449 -0.501 -3.315 0 -2.479 0.836 -4.179 0.836 -1.727 2.396 -2.619 1.56 -0.919 3.705 -0.919 2.034 0 3.566 0.919 1.56 0.891 2.424 2.619 0.891 1.699 0.891 4.179m-11.281 0q0 1.755 0.445 3.064 0.473 1.282 1.449 1.978t2.479 0.697 2.479 -0.697T314.888 27q0.473 -1.309 0.473 -3.064 0 -1.783 -0.473 -3.037t-1.449 -1.922q-0.947 -0.697 -2.479 -0.697 -2.284 0 -3.315 1.504t-1.03 4.151m22.131 -7.717q0.418 0 0.891 0.056 0.501 0.028 0.864 0.112l-0.306 2.256a8.1 8.1 0 0 0 -0.808 -0.139 6.3 6.3 0 0 0 -0.808 -0.056 3.87 3.87 0 0 0 -1.643 0.362 4.32 4.32 0 0 0 -1.393 1.03q-0.613 0.641 -0.975 1.56 -0.334 0.919 -0.334 2.061v7.969h-2.452V16.497h2.006l0.279 2.73h0.112a7.02 7.02 0 0 1 1.142 -1.504 4.95 4.95 0 0 1 1.532 -1.086q0.864 -0.418 1.894 -0.418m20.923 0q2.535 0 3.789 1.309 1.254 1.282 1.254 4.179v9.722h-2.424V21.818q0 -1.755 -0.752 -2.646 -0.724 -0.891 -2.284 -0.891 -2.173 0 -3.12 1.254 -0.919 1.254 -0.919 3.649v8.245h-2.427V21.818q0 -1.17 -0.334 -1.95 -0.334 -0.808 -1.003 -1.198t-1.727 -0.39q-1.504 0 -2.368 0.641 -0.864 0.613 -1.254 1.811 -0.362 1.198 -0.362 2.953v7.744h-2.452V16.497h1.978l0.362 2.034h0.139a4.5 4.5 0 0 1 1.142 -1.282 4.77 4.77 0 0 1 1.532 -0.78 6.03 6.03 0 0 1 1.727 -0.251q1.727 0 2.869 0.613 1.17 0.613 1.699 1.894h0.139q0.752 -1.282 2.034 -1.894a6.426 6.426 0 0 1 2.758 -0.613" fill="white"/><defs><clipPath id="clip0_468_12"><path width="63" height="63" fill="white" d="M0 0h45v45H0z"/></clipPath><clipPath id="clip1_468_12"><path width="33.0575" height="33.0575" fill="white" d="M13.474 13.474h23.612v23.612H13.474z"/></clipPath><clipPath id="clip2_468_12"><path width="33.0575" height="33.0575" fill="white" d="M13.474 13.474h23.612v23.612H13.474z"/></clipPath></defs></svg>